<svg width="256" height="332" viewBox="0 0 256 332" fill="none" xmlns="http://www.w3.org/2000/svg">
<ellipse cx="250" cy="166" rx="6" ry="52" fill="#D9D9D9"/>
<ellipse cx="219" cy="166" rx="10" ry="102" fill="#D9D9D9"/>
<ellipse cx="179" cy="166" rx="14" ry="136" fill="#D9D9D9"/>
<ellipse cx="136.5" cy="166" rx="19.5" ry="156" fill="#D9D9D9"/>
<path d="M0 18C0 8.05891 8.05886 3.88498e-05 18 2.79525e-05L28.1977 1.6774e-05C37.0206 7.10259e-06 44.5245 6.34705 45.8198 15.0743C50.3642 45.694 60 116.46 60 166C60 215.54 50.3642 286.306 45.8198 316.926C44.5245 325.653 37.0206 332 28.1978 332L18 332C8.05889 332 0 323.941 0 314V18Z" fill="#D9D9D9"/>
<path d="M112 166C112 257.679 112 332 88.5005 332C65.0005 332 65.0005 257.679 65.0005 166C65.0005 74.3207 65.001 0 88.5005 0C112 0 112 74.3207 112 166Z" fill="#D9D9D9"/>
</svg>
